<?xml version="1.0" encoding="UTF-8"?>
<svg id="Layer_1" xmlns="http://www.w3.org/2000/svg" xmlns:xlink="http://www.w3.org/1999/xlink" version="1.1" viewBox="0 0 50 51">
  <!-- Generator: Adobe Illustrator 30.4.0, SVG Export Plug-In . SVG Version: 2.1.3 Build 103)  -->
  <defs>
    <style>
      .st0 {
        fill: none;
      }

      .st1 {
        fill: #1d1d1b;
      }

      .st2 {
        fill: #fff;
      }

      .st3 {
        fill: #f54c4c;
      }

      .st4 {
        clip-path: url(#clippath);
      }
    </style>
    <clipPath id="clippath">
      <rect class="st0" width="50" height="51"/>
    </clipPath>
  </defs>
  <g class="st4">
    <g>
      <path class="st3" d="M2.9,0C1.3,0,0,1.3,0,2.9v45.2c0,1.6,1.3,2.9,2.9,2.9h44.2c1.6,0,2.9-1.3,2.9-2.9V2.9c0-1.6-1.3-2.9-2.9-2.9H2.9Z"/>
      <path class="st2" d="M2.9.7C1.7.7.7,1.7.7,2.9v45.2c0,1.2,1,2.2,2.2,2.2h44.2c1.2,0,2.2-1,2.2-2.2V2.9c0-1.2-1-2.2-2.2-2.2H2.9Z"/>
      <path class="st3" d="M48.6,48.1c0,.8-.6,1.5-1.4,1.5H2.9c-.8,0-1.4-.7-1.4-1.5V2.9c0-.8.6-1.5,1.4-1.5h44.2c.8,0,1.4.7,1.4,1.5v45.2Z"/>
      <path class="st2" d="M40.8,40.4c0,.8-.6,1.4-1.4,1.4H10.1c-.8,0-1.4-.6-1.4-1.4V10.6c0-.8.6-1.4,1.4-1.4h29.4c.7,0,1.4.6,1.4,1.4v29.8h0Z"/>
      <path class="st1" d="M4.1,34c-.1.1-.4,0-.6,0-.2-.2-.3-.4-.2-.5l17.1-17c.1-.1.4,0,.6,0,.2.2.3.4.2.5L4,34h0Z"/>
      <path class="st1" d="M21.3,24.4c0,.2-.3.2-.5.2-.3,0-.4-.2-.4-.4l2.4-7.4c0-.2.3-.2.5-.2.3,0,.5.2.4.4l-2.4,7.4h0Z"/>
      <path class="st1" d="M29.2,22.2c0,.1-.1.3-.4.4s-.5,0-.5,0l-2-5c0-.1.1-.3.4-.4s.5,0,.5,0l2,5Z"/>
      <path class="st1" d="M35.5,33.7s-.2,0-.4-.2-.4-.3-.4-.4l1.2-1.7s.2,0,.4.2.4.3.4.4l-1.2,1.7Z"/>
      <path class="st1" d="M35.2,36.3c0,0-.3,0-.4-.3s-.1-.5,0-.5l4.8-2.5c0,0,.3,0,.4.3s.1.5,0,.5l-4.8,2.5Z"/>
      <path class="st1" d="M21.1,15c-.2,0-.2-.4-.2-.9s.3-.8.4-.8l6.1.8c.2,0,.2.4.2.9s-.3.8-.4.8l-6.1-.8Z"/>
      <g>
        <path class="st1" d="M29.5,27.1c-.4-1.3-.8-1.3-1.3-1.3,0,0-2.2-3.5-2.2-3.6-.7-.8-1.2-.8-1.7-.6l-9.3,2.7c-.6.2-1,.4-1.2,1.5,0,0,0,4.2,0,4.2-.4.2-.8.4-.4,1.8l.9,3.2c.2.7.3,1.3,1,1.1l.4,1.5c.2.7.7.5,1.4.3s1.3-.3,1.1-1l-.4-1.5,9.8-2.8.4,1.5c.2.7.8.5,1.5.3s1.2-.3,1.1-1l-.4-1.5c.7-.2.4-.8.2-1.5l-.9-3.2h0Z"/>
        <path class="st2" d="M16.2,33.6c-.8.2-1.6-.2-1.9-1s.2-1.7,1-1.9,1.6.2,1.9,1.1-.2,1.6-1,1.9Z"/>
        <path class="st2" d="M20.9,27.5l-5.7,1.6v-3c0-.6.2-.7.5-.8l8.4-2.4c.4,0,.6-.1,1,.4l1.5,2.6-5.7,1.6Z"/>
        <path class="st2" d="M28.2,30.2c-.8.2-1.6-.2-1.9-1s.2-1.7,1-1.9c.8-.2,1.6.2,1.9,1.1s-.2,1.6-1,1.9Z"/>
      </g>
      <path d="M28.2,35.8h4.7c.6,0,1,.4,1,1v1.7h-6.7v-1.7c0-.6.4-1,1-1Z"/>
    </g>
  </g>
</svg>