<svg width="50" height="51" viewBox="0 0 50 51" fill="none" xmlns="http://www.w3.org/2000/svg">
<g clip-path="url(#clip0_2178_89)">
<path d="M2.88331 0C1.28901 0 0 1.30417 0 2.91723V48.0828C0 49.6958 1.28901 51 2.88331 51H47.1167C48.711 51 50 49.6958 50 48.0828V2.91723C50 1.30417 48.711 0 47.1167 0H2.88331Z" fill="#1B45EA"/>
<path d="M2.8835 0.738281C1.69625 0.738281 0.729492 1.71641 0.729492 2.91762V48.0832C0.729492 49.2844 1.69625 50.2625 2.8835 50.2625H47.1169C48.3041 50.2625 49.2709 49.2844 49.2709 48.0832V2.91762C49.2709 1.71641 48.3041 0.738281 47.1169 0.738281H2.8835Z" fill="white"/>
<path d="M48.5586 48.0831C48.5586 48.8897 47.9141 49.5418 47.1169 49.5418H2.88355C2.0864 49.5418 1.44189 48.8897 1.44189 48.0831V2.9176C1.44189 2.11107 2.0864 1.45898 2.88355 1.45898H47.1169C47.9141 1.45898 48.5586 2.11107 48.5586 2.9176V48.0831Z" fill="#1B45EA"/>
<path d="M40.8415 40.3781C40.8415 41.1503 40.2309 41.7681 39.4677 41.7681H10.0579C9.29467 41.7681 8.68408 41.1503 8.68408 40.3781V10.6224C8.68408 9.85019 9.29467 9.23242 10.0579 9.23242H39.4846C40.2309 9.23242 40.8584 9.85019 40.8584 10.6224V40.3953L40.8415 40.3781Z" fill="white"/>
<path d="M10.8041 38.4045C10.7363 38.5589 10.4819 38.5761 10.2444 38.4731C9.99 38.3702 9.85432 38.1471 9.92216 38.0098L21.2688 16.7312C21.3367 16.5768 21.5911 16.5596 21.8285 16.6626C22.066 16.7655 22.2186 16.9886 22.1508 17.1259L10.7872 38.4045H10.8041Z" fill="#1D1D1B"/>
<path d="M21.3369 24.3505C21.303 24.5049 21.0655 24.5907 20.7942 24.5392C20.5228 24.4877 20.3532 24.3161 20.3871 24.1445L22.7955 16.7828C22.8294 16.6284 23.0669 16.5426 23.3383 16.5941C23.6096 16.6455 23.7962 16.8172 23.7623 16.9888L21.3539 24.3505H21.3369Z" fill="#1D1D1B"/>
<path d="M25.1868 24.4535C25.1868 24.608 24.9664 24.7452 24.695 24.7452C24.4236 24.7452 24.2031 24.608 24.2031 24.4535V16.9031C24.2031 16.7486 24.4236 16.6113 24.695 16.6113C24.9664 16.6113 25.1868 16.7486 25.1868 16.9031V24.4535Z" fill="#1D1D1B"/>
<path d="M28.952 24.1445C28.986 24.299 28.7994 24.4706 28.545 24.5392C28.2736 24.5907 28.0362 24.5221 28.0022 24.3505L25.5938 16.9888C25.5599 16.8343 25.7465 16.6627 26.0009 16.5941C26.2723 16.5426 26.5097 16.6284 26.5436 16.7828L28.952 24.1445Z" fill="#1D1D1B"/>
<path d="M39.3491 38.0613C39.4169 38.2157 39.2643 38.4216 39.0268 38.5246C38.7724 38.6276 38.518 38.6104 38.4671 38.456L27.0865 17.1259C27.0187 16.9714 27.1713 16.7655 27.4088 16.6626C27.6632 16.5596 27.9006 16.5768 27.9685 16.7312L39.3491 38.0613Z" fill="#1D1D1B"/>
<path d="M21.5061 15.7531C21.3535 15.7531 21.2178 15.3584 21.2178 14.8951C21.2178 14.4146 21.3535 14.0371 21.5061 14.0371H27.6798C27.8324 14.0371 27.9681 14.4318 27.9681 14.8951C27.9681 15.3756 27.8324 15.7531 27.6798 15.7531H21.5061Z" fill="#1D1D1B"/>
<path d="M33.0563 31.7462C33.0054 30.3905 32.6153 30.2189 32.1404 30.1674C32.1065 30.1674 30.9871 26.1863 30.9871 26.1348C30.5461 25.2082 30.0712 25.0537 29.4776 25.0537H19.8439C19.2503 25.0537 18.7754 25.2082 18.3344 26.1348C18.3344 26.1691 17.215 30.1674 17.1811 30.1674C16.7232 30.2189 16.3331 30.3905 16.2652 31.7462V35.0409C16.2652 35.7788 16.1804 36.3794 16.9097 36.3966V37.9925C16.9437 38.7475 17.4864 38.696 18.2157 38.696C18.945 38.696 19.5386 38.7304 19.5386 37.9925V36.3966H29.7659V37.9925C29.7659 38.7304 30.3595 38.696 31.0888 38.696C31.8181 38.696 32.3609 38.7475 32.3948 37.9925V36.3966C33.1241 36.3966 33.0223 35.7788 33.0223 35.0409V31.7462H33.0563Z" fill="#1D1D1B"/>
<path d="M18.4535 34.303C17.6224 34.303 16.9609 33.6166 16.9609 32.7929C16.9609 31.9692 17.6394 31.2656 18.4535 31.2656C19.2676 31.2656 19.946 31.952 19.946 32.7929C19.946 33.6337 19.2845 34.303 18.4535 34.303Z" fill="white"/>
<path d="M24.6779 29.773H18.7417L19.471 26.8214C19.7085 26.2552 19.9459 26.238 20.319 26.1865H29.0368C29.4099 26.238 29.6474 26.2552 29.8848 26.8214L30.6142 29.773H24.6779Z" fill="white"/>
<path d="M30.8856 34.303C30.0545 34.303 29.3931 33.6166 29.3931 32.7929C29.3931 31.9692 30.0715 31.2656 30.8856 31.2656C31.6997 31.2656 32.3951 31.952 32.3951 32.7929C32.3951 33.6337 31.7167 34.303 30.8856 34.303Z" fill="white"/>
</g>
<defs>
<clipPath id="clip0_2178_89">
<rect width="50" height="51" fill="white"/>
</clipPath>
</defs>
</svg>
