<?xml version="1.0" encoding="UTF-8"?>
<svg id="Layer_1" xmlns="http://www.w3.org/2000/svg" xmlns:xlink="http://www.w3.org/1999/xlink" version="1.1" viewBox="0 0 50 51">
  <!-- Generator: Adobe Illustrator 30.4.0, SVG Export Plug-In . SVG Version: 2.1.3 Build 103)  -->
  <defs>
    <style>
      .st0 {
        fill: none;
      }

      .st1 {
        fill: #1d1d1b;
      }

      .st2 {
        fill: #fff;
      }

      .st3 {
        clip-path: url(#clippath);
      }

      .st4 {
        fill: #16a34a;
      }
    </style>
    <clipPath id="clippath">
      <rect class="st0" width="50" height="51"/>
    </clipPath>
  </defs>
  <g class="st3">
    <g>
      <path class="st4" d="M2.9,0C1.3,0,0,1.3,0,2.9v45.2c0,1.6,1.3,2.9,2.9,2.9h44.2c1.6,0,2.9-1.3,2.9-2.9V2.9c0-1.6-1.3-2.9-2.9-2.9H2.9Z"/>
      <path class="st2" d="M2.9.7C1.7.7.7,1.7.7,2.9v45.2c0,1.2,1,2.2,2.2,2.2h44.2c1.2,0,2.2-1,2.2-2.2V2.9c0-1.2-1-2.2-2.2-2.2H2.9Z"/>
      <path class="st4" d="M48.6,48.1c0,.8-.6,1.5-1.4,1.5H2.9c-.8,0-1.4-.7-1.4-1.5V2.9c0-.8.6-1.5,1.4-1.5h44.2c.8,0,1.4.7,1.4,1.5v45.2Z"/>
      <path class="st2" d="M40.8,40.4c0,.8-.6,1.4-1.4,1.4H10.1c-.8,0-1.4-.6-1.4-1.4V10.6c0-.8.6-1.4,1.4-1.4h29.4c.7,0,1.4.6,1.4,1.4v29.8h0Z"/>
      <path class="st1" d="M10.8,38.4c0,.2-.3.2-.6,0-.3-.1-.4-.3-.3-.5l11.3-21.3c0-.2.3-.2.6,0,.2.1.4.3.3.5l-11.4,21.3h0Z"/>
      <path class="st1" d="M21.3,24.4c0,.2-.3.2-.5.2-.3,0-.4-.2-.4-.4l2.4-7.4c0-.2.3-.2.5-.2.3,0,.5.2.4.4l-2.4,7.4h0Z"/>
      <path class="st1" d="M25.2,24.5c0,.2-.2.3-.5.3s-.5-.1-.5-.3v-7.6c0-.2.2-.3.5-.3s.5.1.5.3v7.6Z"/>
      <path class="st1" d="M39.3,38.1c0,.2,0,.4-.3.5-.3.1-.5,0-.6,0l-11.4-21.3c0-.2,0-.4.3-.5.3-.1.5,0,.6,0l11.4,21.3Z"/>
      <path class="st1" d="M21.5,15.8c-.2,0-.3-.4-.3-.9s.1-.9.3-.9h6.2c.2,0,.3.4.3.9s-.1.9-.3.9h-6.2Z"/>
      <path class="st1" d="M33.1,31.7c0-1.4-.4-1.5-.9-1.6,0,0-1.2-4-1.2-4-.4-.9-.9-1.1-1.5-1.1h-9.6c-.6,0-1.1.2-1.5,1.1,0,0-1.1,4-1.2,4-.5,0-.8.2-.9,1.6v3.3c0,.7,0,1.3.6,1.4v1.6c0,.8.6.7,1.3.7s1.3,0,1.3-.7v-1.6h10.2v1.6c0,.7.6.7,1.3.7s1.3,0,1.3-.7v-1.6c.7,0,.6-.6.6-1.4v-3.3h0Z"/>
      <path class="st2" d="M18.5,34.3c-.8,0-1.5-.7-1.5-1.5s.7-1.5,1.5-1.5,1.5.7,1.5,1.5-.7,1.5-1.5,1.5Z"/>
      <path class="st2" d="M24.7,29.8h-5.9l.7-3c.2-.6.5-.6.8-.6h8.7c.4,0,.6,0,.8.6l.7,3h-5.9Z"/>
      <path class="st2" d="M30.9,34.3c-.8,0-1.5-.7-1.5-1.5s.7-1.5,1.5-1.5,1.5.7,1.5,1.5-.7,1.5-1.5,1.5Z"/>
      <path d="M33.4,21.4c-.1,0-.2.1-.2.3s0,.2.2.3l1.4.5.5,1.4c0,.1.1.2.3.2s.2,0,.3-.2l.5-1.4,1.4-.5c.1,0,.2-.1.2-.3s0-.2-.2-.3l-1.4-.5-.5-1.4c0-.1-.1-.2-.3-.2s-.2,0-.3.2l-.5,1.4-1.4.5Z"/>
      <path d="M31.3,16.4c0,0,0,0,0,.1s0,.1,0,.1l.7.3.3.7c0,0,0,0,.1,0s.1,0,.1,0l.3-.7.7-.3c0,0,0,0,0-.1s0-.1,0-.1l-.7-.3-.3-.7c0,0,0,0-.1,0s-.1,0-.1,0l-.3.7-.7.3Z"/>
      <path d="M36.1,13.2c0,0,0,0,0,.1s0,.1,0,.1l.7.3.3.7c0,0,0,0,.1,0s.1,0,.1,0l.3-.7.7-.3c0,0,0,0,0-.1s0-.1,0-.1l-.7-.3-.3-.7c0,0,0,0-.1,0s-.1,0-.1,0l-.3.7-.7.3Z"/>
      <path d="M11.2,16.2c-.2,0-.3.2-.3.4s.1.4.3.4l2.3.9.9,2.3c0,.2.2.3.4.3s.4-.1.4-.3l.9-2.3,2.3-.9c.2,0,.3-.2.3-.4s-.1-.4-.3-.4l-2.3-.9-.9-2.3c0-.2-.2-.3-.4-.3s-.4.1-.4.3l-.9,2.3-2.3.9Z"/>
      <path class="st1" d="M29,24.1c0,.2-.2.3-.4.4-.3,0-.5,0-.5-.2l-2.4-7.4c0-.2.2-.3.4-.4.3,0,.5,0,.5.2l2.4,7.4Z"/>
    </g>
  </g>
</svg>