<?xml version="1.0" encoding="UTF-8"?>
<svg id="Layer_1" xmlns="http://www.w3.org/2000/svg" version="1.1" viewBox="0 0 50 51">
  <!-- Generator: Adobe Illustrator 30.4.0, SVG Export Plug-In . SVG Version: 2.1.3 Build 103)  -->
  <defs>
    <style>
      .st0 {
        fill: none;
      }

      .st1 {
        fill: #1d1d1b;
      }

      .st2 {
        fill: #fff;
      }
    </style>
  </defs>
  <rect class="st0" width="50" height="51"/>
  <path class="st1" d="M4.4,43.4c0,.3-.5.3-.8,0s-.5-.5-.5-.7L20,11.1c0-.3.5-.3.8,0s.5.5.5.7L4.4,43.4h0Z"/>
  <path class="st1" d="M20.1,22.5c0,.3-.4.4-.8.3-.4,0-.6-.4-.6-.5l3.6-11c0-.3.4-.4.8-.3.4,0,.7.4.6.5l-3.6,11h0Z"/>
  <path class="st1" d="M25.8,22.6c0,.3-.4.5-.7.5s-.7-.2-.7-.5v-11.2c0-.3.4-.5.7-.5s.7.2.7.5v11.2Z"/>
  <path class="st1" d="M31.4,22.2c0,.3-.3.5-.6.5-.4,0-.7,0-.8-.3l-3.6-11c0-.3.3-.5.6-.5.4,0,.7,0,.8.3l3.6,11Z"/>
  <path class="st1" d="M46.9,43c0,.3,0,.5-.5.7s-.7,0-.8,0L28.6,11.7c0-.3,0-.5.5-.7s.7,0,.8,0l16.9,31.8h0Z"/>
  <path class="st1" d="M20.3,9.7c-.3,0-.5-.5-.5-1.3s.2-1.3.5-1.3h9.2c.3,0,.5.5.5,1.3s-.2,1.3-.5,1.3h-9.2Z"/>
  <path class="st1" d="M37.6,33.6c0-2-.6-2.3-1.4-2.4l-1.7-6c-.6-1.4-1.4-1.6-2.3-1.6h-14.4c-.9,0-1.6.3-2.3,1.6,0,0-1.6,6-1.7,6-.7,0-1.3.4-1.4,2.4v4.9c0,1.1,0,2,1,2v2.4c0,1.1.8,1.1,2,1.1s2,0,2-1.1v-2.4h15.2v2.4c0,1.1.9,1.1,2,1.1s1.9,0,2-1.1v-2.4c1.1,0,.9-.9.9-2v-4.9h0Z"/>
  <path class="st2" d="M15.8,37.4c-1.3,0-2.3-1-2.3-2.3s1-2.3,2.3-2.3,2.3,1,2.3,2.3-1,2.3-2.3,2.3Z"/>
  <path class="st2" d="M25.1,30.6h-8.9l1.1-4.4c.4-.8.7-.9,1.3-.9h13c.5,0,.9,0,1.3.9l1.1,4.4h-8.9Z"/>
  <path class="st2" d="M34.3,37.4c-1.3,0-2.3-1-2.3-2.3s1-2.3,2.3-2.3,2.3,1,2.3,2.3-1,2.3-2.3,2.3Z"/>
</svg>